<?xml version="1.0" standalone="no"?><svg xmlns="http://www.w3.org/2000/svg" viewBox="0 0 1440 320"><path fill="#0948b3" fill-opacity="1" d="M0,32L34.3,69.3C68.6,107,137,181,206,181.3C274.3,181,343,107,411,96C480,85,549,139,617,154.7C685.7,171,754,149,823,154.7C891.4,160,960,192,1029,176C1097.1,160,1166,96,1234,80C1302.9,64,1371,96,1406,112L1440,128L1440,0L1405.7,0C1371.4,0,1303,0,1234,0C1165.7,0,1097,0,1029,0C960,0,891,0,823,0C754.3,0,686,0,617,0C548.6,0,480,0,411,0C342.9,0,274,0,206,0C137.1,0,69,0,34,0L0,0Z"></path></svg>