<?xml version="1.0" standalone="no"?><svg xmlns="http://www.w3.org/2000/svg" viewBox="0 0 1440 320"><path fill="#0948b3" fill-opacity="1" d="M0,224L34.3,218.7C68.6,213,137,203,206,202.7C274.3,203,343,213,411,208C480,203,549,181,617,165.3C685.7,149,754,139,823,154.7C891.4,171,960,213,1029,213.3C1097.1,213,1166,171,1234,165.3C1302.9,160,1371,192,1406,208L1440,224L1440,0L1405.7,0C1371.4,0,1303,0,1234,0C1165.7,0,1097,0,1029,0C960,0,891,0,823,0C754.3,0,686,0,617,0C548.6,0,480,0,411,0C342.9,0,274,0,206,0C137.1,0,69,0,34,0L0,0Z"></path></svg>