<?xml version="1.0" standalone="no"?><svg xmlns="http://www.w3.org/2000/svg" viewBox="0 0 1440 320"><path fill="#0948b3" fill-opacity="1" d="M0,96L34.3,85.3C68.6,75,137,53,206,74.7C274.3,96,343,160,411,176C480,192,549,160,617,133.3C685.7,107,754,85,823,96C891.4,107,960,149,1029,170.7C1097.1,192,1166,192,1234,181.3C1302.9,171,1371,149,1406,138.7L1440,128L1440,0L1405.7,0C1371.4,0,1303,0,1234,0C1165.7,0,1097,0,1029,0C960,0,891,0,823,0C754.3,0,686,0,617,0C548.6,0,480,0,411,0C342.9,0,274,0,206,0C137.1,0,69,0,34,0L0,0Z"></path></svg>